<svg width="74" height="74" viewBox="0 0 74 74" fill="none" xmlns="http://www.w3.org/2000/svg">
<path d="M36.9901 24.6614C30.1961 24.6614 24.6517 30.2059 24.6517 37C24.6517 43.7941 30.1961 49.3386 36.9901 49.3386C43.784 49.3386 49.3284 43.7941 49.3284 37C49.3284 30.2059 43.784 24.6614 36.9901 24.6614ZM73.9959 37C73.9959 31.8905 74.0422 26.8274 73.7552 21.7272C73.4683 15.8032 72.1169 10.5456 67.785 6.2137C63.4439 1.87252 58.1957 0.53036 52.2718 0.243416C47.1625 -0.0435282 42.0994 0.00275322 36.9993 0.00275322C31.8899 0.00275322 26.8269 -0.0435282 21.7268 0.243416C15.8029 0.53036 10.5454 1.88177 6.21358 6.2137C1.87248 10.5549 0.53035 15.8032 0.243411 21.7272C-0.0435274 26.8366 0.00275317 31.8998 0.00275317 37C0.00275317 42.1002 -0.0435274 47.1726 0.243411 52.2728C0.53035 58.1968 1.88174 63.4544 6.21358 67.7863C10.5547 72.1275 15.8029 73.4696 21.7268 73.7566C26.8361 74.0435 31.8992 73.9972 36.9993 73.9972C42.1087 73.9972 47.1717 74.0435 52.2718 73.7566C58.1957 73.4696 63.4532 72.1182 67.785 67.7863C72.1261 63.4451 73.4683 58.1968 73.7552 52.2728C74.0514 47.1726 73.9959 42.1095 73.9959 37ZM36.9901 55.9846C26.4844 55.9846 18.0058 47.5058 18.0058 37C18.0058 26.4942 26.4844 18.0154 36.9901 18.0154C47.4957 18.0154 55.9743 26.4942 55.9743 37C55.9743 47.5058 47.4957 55.9846 36.9901 55.9846ZM56.7518 21.6716C54.2989 21.6716 52.3181 19.6908 52.3181 17.2379C52.3181 14.785 54.2989 12.8042 56.7518 12.8042C59.2047 12.8042 61.1855 14.785 61.1855 17.2379C61.1862 17.8204 61.072 18.3972 60.8494 18.9355C60.6269 19.4737 60.3003 19.9628 59.8885 20.3747C59.4766 20.7865 58.9876 21.1131 58.4493 21.3356C57.9111 21.5582 57.3342 21.6724 56.7518 21.6716Z" fill="#08BC61"/>
</svg>
