<svg width="121" height="121" viewBox="0 0 121 121" fill="none" xmlns="http://www.w3.org/2000/svg">
<path d="M87.8486 34.164L48.5832 73.4294L27.1928 52.0986L18.7915 60.4998L48.5832 90.2915L96.2498 42.6248L87.8486 34.164ZM60.4998 0.916504C27.6098 0.916504 0.916504 27.6098 0.916504 60.4998C0.916504 93.3898 27.6098 120.083 60.4998 120.083C93.3898 120.083 120.083 93.3898 120.083 60.4998C120.083 27.6098 93.3898 0.916504 60.4998 0.916504ZM60.4998 108.166C34.164 108.166 12.8332 86.8357 12.8332 60.4998C12.8332 34.164 34.164 12.8332 60.4998 12.8332C86.8357 12.8332 108.167 34.164 108.167 60.4998C108.167 86.8357 86.8357 108.166 60.4998 108.166Z" fill="#08BC61"/>
</svg>
