<svg width="74" height="74" viewBox="0 0 74 74" fill="none" xmlns="http://www.w3.org/2000/svg">
<path d="M60.4029 20.6275C57.3294 19.9516 54.5489 18.3194 52.4605 15.9652C50.3721 13.6109 49.0832 10.6556 48.7788 7.52334V6.16667H38.1413V48.3158C38.1434 50.1861 37.5571 52.0096 36.4653 53.528C35.3735 55.0465 33.8316 56.183 32.0581 56.7764C30.2845 57.3699 28.3691 57.3903 26.5833 56.8347C24.7975 56.2791 23.2318 55.1757 22.1079 53.6808C21.1011 52.3576 20.4845 50.779 20.328 49.1237C20.1715 47.4683 20.4813 45.8022 21.2223 44.3137C21.9634 42.8252 23.1061 41.5737 24.5213 40.7008C25.9365 39.8279 27.5677 39.3684 29.2304 39.3742C30.15 39.3689 31.065 39.5041 31.9438 39.775V28.9833C30.9211 28.8567 29.8906 28.8052 28.8604 28.8292C25.0658 28.9306 21.3831 30.1363 18.2633 32.2987C15.1435 34.4612 12.7219 37.4865 11.2952 41.0042C9.86854 44.5218 9.49859 48.3792 10.2307 52.1039C10.9628 55.8286 12.7652 59.259 15.4171 61.975C18.135 64.7383 21.613 66.6313 25.4093 67.4134C29.2055 68.1955 33.1485 67.8314 36.7373 66.3675C40.3261 64.9035 43.3988 62.4058 45.5648 59.1915C47.7308 55.9773 48.8925 52.1918 48.9021 48.3158V26.7325C53.1924 29.7972 58.3371 31.4366 63.6096 31.4192V20.9358C62.5739 20.9401 61.5406 20.8368 60.5263 20.6275H60.4029Z" fill="#08BC61"/>
</svg>
