<svg width="1024" height="1024" viewBox="0 0 1024 1024" fill="none" xmlns="http://www.w3.org/2000/svg">
<path d="M508 624C537.704 624 566.192 612.2 587.196 591.196C608.2 570.192 620 541.704 620 512C620 508.72 619.85 505.47 619.57 502.26L498.26 623.57C501.47 623.85 504.71 624 508 624ZM878.72 165.56L836 122.88C834.5 121.381 832.466 120.539 830.345 120.539C828.224 120.539 826.19 121.381 824.69 122.88L715.37 232.23C655.063 201.41 587.273 186 512 186C319.8 186 176.4 286.1 81.8 486.3C77.9975 494.352 76.0255 503.146 76.0255 512.05C76.0255 520.954 77.9975 529.748 81.8 537.8C119.6 617.42 165.117 681.237 218.35 729.25L112.56 835C111.061 836.5 110.219 838.534 110.219 840.655C110.219 842.776 111.061 844.81 112.56 846.31L155.25 889C156.75 890.499 158.784 891.341 160.905 891.341C163.026 891.341 165.06 890.499 166.56 889L878.72 176.88C879.464 176.137 880.054 175.255 880.456 174.284C880.859 173.312 881.066 172.271 881.066 171.22C881.066 170.169 880.859 169.128 880.456 168.156C880.054 167.185 879.464 166.303 878.72 165.56ZM332 512C331.997 481.601 339.868 451.719 354.847 425.266C369.825 398.812 391.4 376.69 417.469 361.053C443.539 345.416 473.214 336.798 503.604 336.039C533.994 335.28 564.062 342.405 590.88 356.72L542.26 405.34C522.652 399.062 501.693 398.305 481.684 403.155C461.675 408.004 443.387 418.271 428.829 432.829C414.271 447.387 404.004 465.675 399.155 485.684C394.305 505.693 395.062 526.652 401.34 546.26L352.72 594.88C339.076 569.388 331.957 540.914 332 512V512Z" fill="black"/>
<path d="M942.2 486.2C907 412.067 865.103 351.617 816.51 304.85L672.37 449C684.52 480.761 687.213 515.362 680.124 548.621C673.035 581.88 656.466 612.374 632.42 636.42C608.374 660.466 577.88 677.035 544.621 684.124C511.362 691.213 476.761 688.52 445 676.37L322.74 798.63C379.46 824.877 442.547 838 512 838C704.2 838 847.6 737.9 942.2 537.7C946.003 529.648 947.976 520.855 947.976 511.95C947.976 503.045 946.003 494.251 942.2 486.2V486.2Z" fill="black"/>
</svg>
