<svg width="19" height="19" viewBox="0 0 19 19" fill="none" xmlns="http://www.w3.org/2000/svg">
<path d="M13.255 11.7549H12.465L12.185 11.4849C13.165 10.3449 13.755 8.86488 13.755 7.25488C13.755 3.66488 10.845 0.754883 7.255 0.754883C3.665 0.754883 0.755005 3.66488 0.755005 7.25488C0.755005 10.8449 3.665 13.7549 7.255 13.7549C8.865 13.7549 10.345 13.1649 11.485 12.1849L11.755 12.4649V13.2549L16.755 18.2449L18.245 16.7549L13.255 11.7549ZM7.255 11.7549C4.76501 11.7549 2.755 9.74488 2.755 7.25488C2.755 4.76488 4.76501 2.75488 7.255 2.75488C9.745 2.75488 11.755 4.76488 11.755 7.25488C11.755 9.74488 9.745 11.7549 7.255 11.7549Z" fill="white"/>
</svg>
