<svg width="73" height="73" viewBox="0 0 73 73" fill="none" xmlns="http://www.w3.org/2000/svg">
<path d="M68.8333 40.5417H4.16667C1.94375 40.5417 0.125 42.3604 0.125 44.5833V68.8333C0.125 71.0562 1.94375 72.875 4.16667 72.875H68.8333C71.0562 72.875 72.875 71.0562 72.875 68.8333V44.5833C72.875 42.3604 71.0562 40.5417 68.8333 40.5417ZM16.2917 64.7917C11.8458 64.7917 8.20833 61.1542 8.20833 56.7083C8.20833 52.2625 11.8458 48.625 16.2917 48.625C20.7375 48.625 24.375 52.2625 24.375 56.7083C24.375 61.1542 20.7375 64.7917 16.2917 64.7917ZM68.8333 0.125H4.16667C1.94375 0.125 0.125 1.94375 0.125 4.16667V28.4167C0.125 30.6396 1.94375 32.4583 4.16667 32.4583H68.8333C71.0562 32.4583 72.875 30.6396 72.875 28.4167V4.16667C72.875 1.94375 71.0562 0.125 68.8333 0.125ZM16.2917 24.375C11.8458 24.375 8.20833 20.7375 8.20833 16.2917C8.20833 11.8458 11.8458 8.20833 16.2917 8.20833C20.7375 8.20833 24.375 11.8458 24.375 16.2917C24.375 20.7375 20.7375 24.375 16.2917 24.375Z" fill="#08BC61"/>
</svg>
