<svg width="23" height="22" viewBox="0 0 23 22" fill="none" xmlns="http://www.w3.org/2000/svg">
<path d="M17.3126 8.26935L9.49648 16.0854L4.80905 11.398L6.36784 9.83919L9.49648 12.9678L15.7538 6.71055L17.3126 8.26935ZM2.21106 11C2.21106 8.42412 3.33869 6.11357 5.10754 4.4995L7.73869 7.13065V0.497487H1.10553L3.53769 2.92965C1.37085 4.94171 0 7.80502 0 11C0 16.7377 4.36683 21.4472 9.94975 22V19.7668C5.59397 19.2251 2.21106 15.4995 2.21106 11ZM22.1106 11C22.1106 5.26231 17.7437 0.552764 12.1608 0V2.23317C16.5166 2.77487 19.8995 6.5005 19.8995 11C19.8995 13.5759 18.7719 15.8864 17.003 17.5005L14.3719 14.8693V21.5025H21.005L18.5729 19.0704C20.7397 17.0583 22.1106 14.195 22.1106 11Z" fill="#08BC61"/>
</svg>
